# xmcd
#
# Track frame offsets:
#	150
#	16302
#	28115
#	46225
#	63137
#	76690
#	91375
#	104687
#	118450
#	131980
#	147625
#	163542
#
# Disc length: 2414 seconds
#
# Revision: 0
# Processed by: cddbd v1.4PL0 Copyright (c) Steve Scherf et al.
# Submitted via: audiograbber 1.80.04
#
DISCID=a6096c0c
DTITLE=Truck Stop - Zuhause
DYEAR=1977
DGENRE=country
TTITLE0=Ich möcht so gern Dave Dudley hör'n
TTITLE1=Bleifuss Joe
TTITLE2=Meine Tür steht immer offen
TTITLE3=Hey, Kleiner
TTITLE4=Cowboy bei der Bahn
TTITLE5=Studio Nr. 9
TTITLE6=Die Frau mit dem Gurt
TTITLE7=Das Mädchen wird schöner mit jedem Glas Bier
TTITLE8=Alt und nur im Weg
TTITLE9=Henry's Farm
TTITLE10=Schuldlos im U.G.
TTITLE11=Die Zockerhöhle
EXTD=Metronome 847 775-2
EXTT0=
EXTT1=
EXTT2=
EXTT3=
EXTT4=
EXTT5=
EXTT6=
EXTT7=
EXTT8=
EXTT9=
EXTT10=
EXTT11=
PLAYORDER=
